# xmcd
#
# Track frame offsets: 
#        150
#        19025
#        31670
#        51375
#        71975
#        92845
#        114787
#        132912
#        147500
#        162412
#        180950
#
# Disc length: 2644 seconds
#
# Revision: 7
# Processed by: cddbd v1.5.2PL0 Copyright (c) Steve Scherf et al.
# Submitted via: ExactAudioCopy v1.0b3
#
DISCID=920a520b
DTITLE=LoneStar - This Christmas Time
DYEAR=2000
DGENRE=Christmas
TTITLE0=Santa Claus Is Comin' To Town
TTITLE1=Please Come Home For Christmas
TTITLE2=Have Yourself A Merry Little Christmas
TTITLE3=If Every Day Could Be Christmas
TTITLE4=Little Drummer Boy
TTITLE5=O Holy Night
TTITLE6=Reason For The Season
TTITLE7=What Child Is This
TTITLE8=Winter Wonderland
TTITLE9=The Christmas Song (Chestnuts Roasting On An Open Fire)
TTITLE10=This Christmas Time
EXTD=
EXTT0=
EXTT1=
EXTT2=
EXTT3=
EXTT4=
EXTT5=
EXTT6=
EXTT7=
EXTT8=
EXTT9=
EXTT10=
PLAYORDER=
